<?xml version="1.0" encoding="UTF-8"?>
<svg id="_图层_2" data-name="图层 2" xmlns="http://www.w3.org/2000/svg" viewBox="0 0 73 25">
  <defs>
    <style>
      .cls-1 {
        fill: #040000;
      }

      .cls-2 {
        fill: #fff;
      }
    </style>
  </defs>
  <g id="_图层_1-2" data-name="图层 1">
    <g>
      <path class="cls-1" d="M5.16,25c-.21,0-.41,0-.62,0-.38-.01-.83-.03-1.27-.11-.42-.07-.79-.19-1.13-.36-.36-.17-.67-.4-.95-.66-.28-.27-.51-.57-.7-.91-.18-.33-.3-.68-.37-1.08-.08-.44-.1-.89-.11-1.23,0-.14,0-.6,0-.6V4.95s0-.45,0-.58c0-.34.03-.79.11-1.22.07-.4.19-.76.37-1.09.18-.34.41-.65.69-.91.28-.27.6-.49.96-.67.35-.17.72-.29,1.13-.36.46-.08.92-.1,1.28-.11h.62s62.67,0,62.67,0h.62c.35.02.81.04,1.27.11.41.07.78.19,1.14.36.35.17.67.4.95.66.28.27.51.57.7.92.18.33.3.69.36,1.08.08.41.1.84.12,1.23,0,.19,0,.38,0,.58,0,.25,0,.48,0,.71v13.68c0,.24,0,.47,0,.7,0,.21,0,.41,0,.61-.01.38-.04.81-.12,1.21-.07.4-.19.76-.37,1.09-.18.34-.42.65-.69.91-.28.27-.6.5-.95.67-.35.17-.71.29-1.14.36-.44.08-.89.1-1.27.11-.2,0-.41,0-.61,0h-.74s-61.94,0-61.94,0Z"/>
      <g>
        <path class="cls-2" d="M26.63,10.25h-2.68l-.64,1.88h-1.13l2.54-6.95h1.18l2.54,6.95h-1.15l-.64-1.88ZM24.23,9.38h2.12l-1.05-3.05h-.03l-1.05,3.05Z"/>
        <path class="cls-2" d="M33.91,9.59c0,1.57-.85,2.59-2.14,2.59-.73,0-1.31-.32-1.61-.89h-.02v2.51h-1.05v-6.74h1.02v.84h.02c.29-.54.92-.9,1.63-.9,1.3,0,2.16,1.02,2.16,2.59ZM32.83,9.59c0-1.03-.54-1.7-1.35-1.7s-1.34.69-1.34,1.7.54,1.7,1.34,1.7,1.35-.67,1.35-1.7Z"/>
        <path class="cls-2" d="M39.55,9.59c0,1.57-.85,2.59-2.14,2.59-.73,0-1.31-.32-1.61-.89h-.02v2.51h-1.05v-6.74h1.02v.84h.02c.29-.54.92-.9,1.63-.9,1.3,0,2.16,1.02,2.16,2.59ZM38.47,9.59c0-1.03-.54-1.7-1.35-1.7s-1.34.69-1.34,1.7.54,1.7,1.34,1.7,1.35-.67,1.35-1.7Z"/>
        <path class="cls-2" d="M43.27,10.19c.08.69.75,1.14,1.68,1.14s1.52-.45,1.52-1.07c0-.54-.38-.86-1.3-1.08l-.91-.22c-1.29-.31-1.89-.9-1.89-1.87,0-1.2,1.06-2.02,2.56-2.02s2.5.82,2.54,2.02h-1.06c-.06-.69-.64-1.11-1.49-1.11s-1.43.42-1.43,1.04c0,.49.37.78,1.28,1l.77.19c1.44.34,2.04.91,2.04,1.93,0,1.3-1.05,2.11-2.71,2.11-1.56,0-2.61-.79-2.68-2.05h1.08Z"/>
        <path class="cls-2" d="M49.86,5.86v1.2h.97v.82h-.97v2.79c0,.43.2.64.62.64.11,0,.28-.01.35-.02v.82c-.12.03-.35.05-.58.05-1.04,0-1.44-.39-1.44-1.37v-2.9h-.74v-.82h.74v-1.2h1.06Z"/>
        <path class="cls-2" d="M51.4,9.59c0-1.59.95-2.59,2.43-2.59s2.43,1,2.43,2.59-.94,2.59-2.43,2.59-2.43-1-2.43-2.59ZM55.18,9.59c0-1.09-.51-1.74-1.36-1.74s-1.36.65-1.36,1.74.51,1.74,1.36,1.74,1.36-.64,1.36-1.74Z"/>
        <path class="cls-2" d="M57.12,7.06h1v.86h.02c.16-.57.63-.92,1.23-.92.15,0,.28.02.36.04v.97c-.08-.03-.27-.06-.47-.06-.68,0-1.1.45-1.1,1.17v3h-1.05v-5.06Z"/>
        <path class="cls-2" d="M64.59,10.64c-.14.92-1.05,1.55-2.21,1.55-1.49,0-2.42-.99-2.42-2.57s.93-2.62,2.37-2.62,2.31.96,2.31,2.5v.36h-3.62v.06c0,.87.55,1.43,1.38,1.43.58,0,1.04-.27,1.18-.71h1ZM61.03,9.13h2.56c-.02-.78-.53-1.29-1.26-1.29s-1.25.52-1.3,1.29Z"/>
      </g>
      <g>
        <path class="cls-2" d="M23.51,19.57l.04-.54c.23.07.45.1.63.1.19,0,.27-.02.36-.15.17-.24.29-.77.29-1.51,0-.55-.17-.71-.62-.71-.1,0-.21,0-.34.01-.29,1.06-.7,2.02-1.17,2.69l-.52-.28c.45-.6.83-1.43,1.09-2.36-.34.04-.69.09-1.01.17l-.11-.54c.38-.07.83-.13,1.26-.17.08-.4.16-.82.19-1.24l.61.07c-.06.38-.12.75-.21,1.12h.24c.79,0,1.17.39,1.17,1.21s-.16,1.49-.36,1.83c-.17.28-.39.39-.75.39-.26,0-.54-.04-.8-.1ZM25.51,16.25l.45-.3c.72.62.98,1.51,1.06,2.28l-.6.09c-.06-.78-.27-1.51-.92-2.07Z"/>
        <path class="cls-2" d="M29.09,19.65l-.12-.55c.16.01.36.02.49.02,1.23,0,1.7-.34,1.7-.86,0-.41-.27-.64-.86-.64-.52,0-1.12.29-1.71.82l-.48-.21c0-1.18.12-1.72.53-2.31l.55.18c-.38.5-.47.97-.47,1.6.51-.34,1.15-.57,1.7-.57.83,0,1.35.42,1.35,1.11,0,.87-.7,1.41-2.37,1.41-.08,0-.2,0-.3,0ZM28.51,15.57l.16-.54c.77.12,1.9.36,2.45.55l-.15.54c-.49-.18-1.69-.46-2.45-.55Z"/>
        <path class="cls-2" d="M33.57,19.23c.68-.22,1.24-.61,1.67-1.07-.37-.31-.75-.55-1.16-.77l.34-.42c.45.23.84.47,1.18.74.31-.46.52-.95.61-1.42h-1.59c-.37.58-.83,1.12-1.36,1.54l-.45-.39c.75-.61,1.43-1.51,1.73-2.35l.6.14c-.07.17-.14.35-.22.52h1.54l.44.2c-.32,1.77-1.36,3.19-2.98,3.77l-.36-.48ZM36.19,14.93l.35-.17c.19.25.34.5.44.76l-.39.18c-.09-.27-.24-.53-.4-.77ZM36.97,14.87l.35-.17c.19.26.33.5.45.78l-.39.17c-.1-.26-.24-.52-.42-.78Z"/>
        <path class="cls-2" d="M39.69,19.68l-.32-.5c1.67-.4,2.16-1.48,2.19-2.71h-2.61v1.24h-.63v-1.76h1.56v-.9h.63v.9h1.16l.57.16c-.07,1.75-.67,3.08-2.56,3.57Z"/>
        <path class="cls-2" d="M43.46,15.99l.35-.5c.57.26,1.14.6,1.53.92l-.4.53c-.4-.34-.93-.67-1.48-.94ZM43.58,19.02c1.49-.21,2.9-1.18,3.59-2.56l.41.46c-.77,1.43-2.24,2.46-3.76,2.68l-.24-.57Z"/>
        <path class="cls-2" d="M52.68,19.32h-3.91v-3.66h3.91v3.66ZM49.38,16.22v2.53h2.68v-2.53h-2.68Z"/>
        <path class="cls-2" d="M58.29,17.68h-4.4v-.63h4.4v.63Z"/>
        <path class="cls-2" d="M59.78,15.06h.62v1.58c.88.36,1.7.78,2.38,1.18l-.35.54c-.58-.38-1.29-.75-2.03-1.08v2.37h-.62v-4.59ZM61.24,15.39l.37-.17c.19.26.33.55.44.84l-.4.18c-.09-.28-.24-.59-.4-.84ZM61.95,15.13l.37-.17c.21.28.34.53.47.84l-.4.18c-.12-.31-.25-.57-.44-.84Z"/>
      </g>
      <g>
        <path class="cls-2" d="M15.8,12.7c-.02-1.8,1.49-2.67,1.56-2.71-.85-1.23-2.17-1.4-2.64-1.41-1.11-.12-2.19.66-2.75.66s-1.45-.65-2.39-.63c-1.21.02-2.34.71-2.96,1.78-1.28,2.19-.32,5.4.9,7.17.61.87,1.33,1.83,2.27,1.8.92-.04,1.26-.58,2.37-.58s1.42.58,2.37.56c.98-.02,1.6-.87,2.19-1.74.71-.99.99-1.97,1-2.02-.02,0-1.91-.72-1.93-2.88Z"/>
        <path class="cls-2" d="M13.99,7.41c.49-.61.83-1.44.74-2.28-.71.03-1.61.49-2.12,1.08-.45.53-.86,1.39-.76,2.2.8.06,1.62-.4,2.14-1Z"/>
      </g>
    </g>
  </g>
</svg>