<?xml version="1.0" encoding="UTF-8"?>
<svg id="_图层_2" data-name="图层 2" xmlns="http://www.w3.org/2000/svg" viewBox="0 0 73 25">
  <defs>
    <style>
      .cls-1 {
        fill: #1c6ea6;
      }

      .cls-2 {
        fill: #f0c139;
      }

      .cls-3 {
        fill: #fff;
      }

      .cls-4 {
        fill: #0d9771;
      }

      .cls-5 {
        fill: #040000;
      }

      .cls-6 {
        fill: #ca5330;
      }
    </style>
  </defs>
  <g id="_图层_1-2" data-name="图层 1">
    <g>
      <path class="cls-5" d="M70.3,25H2.7c-1.49,0-2.7-1.41-2.7-3.12V3.13C0,1.41,1.22,0,2.7,0h67.59c1.49,0,2.7,1.41,2.7,3.13v18.75c0,1.72-1.22,3.12-2.7,3.12Z"/>
      <path class="cls-3" d="M36.87,7.77c-1.21,0-2.19.91-2.19,2.17s.99,2.17,2.19,2.17,2.19-.92,2.19-2.17-.99-2.17-2.19-2.17ZM36.87,11.25c-.66,0-1.23-.54-1.23-1.31s.57-1.31,1.23-1.31,1.23.53,1.23,1.31-.57,1.31-1.23,1.31ZM32.09,7.77c-1.21,0-2.19.91-2.19,2.17s.99,2.17,2.19,2.17,2.19-.92,2.19-2.17-.99-2.17-2.19-2.17ZM32.09,11.25c-.66,0-1.23-.54-1.23-1.31s.57-1.31,1.23-1.31,1.23.53,1.23,1.31-.57,1.31-1.23,1.31ZM26.39,8.44v.92h2.22c-.07.52-.24.89-.51,1.16-.32.32-.83.67-1.71.67-1.37,0-2.43-1.09-2.43-2.44s1.07-2.44,2.43-2.44c.74,0,1.28.29,1.67.66l.65-.65c-.55-.53-1.29-.93-2.33-.93-1.87,0-3.45,1.51-3.45,3.36s1.57,3.36,3.45,3.36c1.01,0,1.77-.33,2.37-.94.61-.61.8-1.46.8-2.15,0-.21-.02-.41-.05-.57h-3.12ZM49.68,9.15c-.18-.48-.74-1.38-1.87-1.38s-2.06.88-2.06,2.17c0,1.21.93,2.17,2.17,2.17,1,0,1.58-.61,1.82-.96l-.75-.49c-.25.36-.59.6-1.08.6s-.84-.22-1.06-.66l2.92-1.2-.1-.25ZM46.7,9.87c-.02-.84.65-1.26,1.14-1.26.38,0,.7.19.81.46l-1.95.8ZM44.32,11.97h.96v-6.37h-.96v6.37ZM42.75,8.26h-.03c-.22-.25-.63-.48-1.15-.48-1.09,0-2.1.95-2.1,2.17s1,2.16,2.1,2.16c.52,0,.94-.23,1.15-.49h.03v.31c0,.83-.45,1.27-1.17,1.27-.59,0-.95-.42-1.1-.77l-.84.34c.24.57.88,1.28,1.94,1.28,1.13,0,2.08-.66,2.08-2.26v-3.89h-.91v.35ZM41.65,11.25c-.66,0-1.22-.55-1.22-1.3s.55-1.32,1.22-1.32,1.17.56,1.17,1.32-.51,1.3-1.17,1.3ZM54.18,5.61h-2.3v6.37h.96v-2.41h1.34c1.06,0,2.11-.76,2.11-1.98s-1.05-1.98-2.11-1.98ZM54.21,8.68h-1.36v-2.18h1.36c.72,0,1.12.59,1.12,1.09s-.41,1.09-1.12,1.09ZM60.13,7.76c-.69,0-1.41.3-1.71.97l.85.35c.18-.35.52-.47.88-.47.5,0,1,.29,1.01.82v.07c-.17-.1-.55-.25-1-.25-.92,0-1.85.5-1.85,1.43,0,.85.75,1.4,1.6,1.4.64,0,1-.29,1.22-.62h.03v.49h.93v-2.44c0-1.13-.85-1.76-1.95-1.76ZM60.02,11.25c-.31,0-.75-.16-.75-.54,0-.49.55-.68,1.02-.68.42,0,.62.09.88.21-.07.59-.59,1.01-1.14,1.01ZM65.46,7.9l-1.1,2.76h-.03l-1.14-2.76h-1.03l1.71,3.86-.98,2.15h1l2.64-6h-1.07ZM56.82,11.97h.96v-6.37h-.96v6.37Z"/>
      <g>
        <path class="cls-6" d="M12.5,12.19l-5.47,5.75s0,0,0,0c.17.62.74,1.08,1.43,1.08.27,0,.53-.07.75-.2h.02s6.16-3.53,6.16-3.53l-2.88-3.11Z"/>
        <path class="cls-2" d="M18.03,11.21h0s-2.66-1.53-2.66-1.53l-3,2.64,3.01,2.98,2.65-1.51c.46-.25.78-.73.78-1.29s-.31-1.04-.77-1.29Z"/>
        <path class="cls-1" d="M7.02,7.02c-.03.12-.05.25-.05.38v10.17c0,.13.02.26.05.38l5.66-5.61-5.66-5.31Z"/>
        <path class="cls-4" d="M12.54,12.48l2.83-2.81-6.15-3.53c-.22-.13-.48-.21-.76-.21-.68,0-1.26.46-1.43,1.09,0,0,0,0,0,0l5.51,5.46Z"/>
      </g>
      <g>
        <path class="cls-3" d="M27,16.23c-.25.03-.63.05-1.03.09-.56.22-1.11.9-1.11,1.5,0,.13.02.35.15.55.25.41.71.54,1.35.58l-.03.35c-.39-.04-.86-.11-1.31-.46-.3-.23-.46-.58-.46-.96,0-.35.13-.96.88-1.51-.93.09-1.42.15-2.16.26l-.02-.33c.62-.05,1.55-.13,1.68-.14,1.09-.1,1.65-.17,2.05-.22l.02.31ZM26.36,16.78c.09.12.25.33.36.47l-.22.14c-.11-.17-.26-.37-.34-.46l.2-.15ZM26.81,16.5c.08.1.29.37.36.47l-.21.15c-.09-.15-.25-.36-.35-.48l.2-.14Z"/>
        <path class="cls-3" d="M29.76,16.76h1.52v.29h-1.52v.7h1.79v.29h-1.79v1.02c0,.32-.16.33-.78.38-.02-.12-.06-.23-.13-.35h.54s.06-.02.06-.06v-.99h-1.75v-.29h1.75v-.7h-1.53v-.29h1.53v-.62c-.54.05-.96.08-1.42.08-.02-.09-.06-.19-.13-.28.11,0,.21,0,.3,0,.27,0,.45-.01.6-.02.53-.04,1.16-.08,2.25-.29l.2.28c-.48.08-1.05.16-1.49.2v.65Z"/>
        <path class="cls-3" d="M32.96,15.89c-.2.78-.25,1.66-.25,2.09,0,.14,0,.71.11,1.27l-.32.08c-.06-.39-.11-.78-.11-1.27,0-.41.05-1.42.23-2.27l.34.1ZM33.7,18.06c.01.39.08.71,1.31.71.36,0,.53-.02.73-.07l.02.33c-.2.03-.36.04-.64.04-1.39,0-1.72-.33-1.72-1.04l.29.02ZM35.49,16.55c-.19-.03-.32-.04-.56-.04-.51,0-.88.04-1.34.14l-.04-.3c.25-.05.66-.13,1.39-.13.15,0,.32,0,.56.02l-.02.31Z"/>
        <path class="cls-3" d="M37.22,15.99v-.3h1.49c0,.88,0,1.28.37,2.04.27.56.58.9,1.24,1.4-.1.08-.18.16-.25.27-.46-.4-.86-.76-1.18-1.33-.22-.39-.29-.67-.41-1.14-.22.63-.56,1.63-1.84,2.46-.05-.12-.12-.22-.21-.31.64-.34,1.1-.89,1.35-1.37.3-.55.35-.82.43-1.17l.21.07c-.01-.13-.03-.36-.03-.61h-1.18Z"/>
        <path class="cls-3" d="M42.11,16.31l.12.21c-.07.07-.24.17-.36.34v.37c1-.82,1.26-.97,1.58-.97.17,0,.31.07.38.15.13.13.13.32.13.43,0,.24-.09,1.41-.09,1.68,0,.12,0,.36.21.36s.25-.18.31-.53c.06.04.2.1.31.13-.07.29-.18.72-.61.72-.12,0-.27-.05-.37-.14-.15-.13-.17-.31-.17-.46,0-.26.08-1.46.08-1.67s0-.38-.25-.38c-.16,0-.39.14-.45.19-.07.04-.6.45-1.08.88,0,.55,0,1.29.01,1.73h-.32c0-.23,0-1.27,0-1.48-.24.25-.64.67-.75.79l-.2-.3c.3-.29.36-.35.94-.89,0-.19.02-.44.02-.74-.31.1-.57.14-.72.17l-.03-.31c.18-.01.48-.05.76-.12,0-.37,0-.62.01-.89l.35.02c-.03.16-.03.23-.07.79l.21-.09Z"/>
        <path class="cls-3" d="M47.29,15.64c-.05.33-.05.48-.06,1,.5,0,.76.01,1.38-.17v.33c-.35.07-.64.12-1.05.12-.08,0-.2,0-.34,0,0,.54,0,.59.01,1.31.46.13.89.3,1.62.7l-.21.3c-.52-.35-.88-.5-1.41-.71,0,.4-.04.55-.3.68-.21.11-.52.12-.63.12-.7,0-.94-.37-.94-.64,0-.3.3-.59.95-.59.21,0,.41.03.61.05-.01-.7-.03-1.58-.03-2.49h.39ZM46.3,19.03c.64,0,.63-.28.63-.62-.19-.04-.35-.06-.59-.06-.32,0-.67.08-.67.35,0,.31.53.33.63.33Z"/>
        <path class="cls-3" d="M49.73,16.94c.27-.05.46-.09.62-.12.86-.18,1.03-.22,1.27-.22.21,0,.5.05.68.43.09.19.13.4.13.62,0,1.33-1.69,1.7-2.11,1.79,0-.05-.06-.2-.13-.33.75-.08,1.34-.34,1.68-.76.15-.18.25-.38.25-.74,0-.06,0-.73-.51-.73-.34,0-1.39.28-1.79.39l-.07-.33ZM51.63,16.16c-.81-.03-1.29-.12-1.46-.17l.08-.3c.33.11.81.16,1.4.19l-.03.28Z"/>
      </g>
    </g>
  </g>
</svg>